<?xml version="1.0" standalone="no"?>
<!DOCTYPE svg PUBLIC "-//W3C//DTD SVG 20010904//EN"
 "http://www.w3.org/TR/2001/REC-SVG-20010904/DTD/svg10.dtd">
<svg version="1.0" xmlns="http://www.w3.org/2000/svg"
 width="304.000000pt" height="304.000000pt" viewBox="0 0 304.000000 304.000000"
 preserveAspectRatio="xMidYMid meet">
<metadata>
Created by potrace 1.11, written by Peter Selinger 2001-2013
</metadata>
<g transform="translate(0.000000,304.000000) scale(0.100000,-0.100000)"
fill="#000000" stroke="none">
<path d="M0 1784 l0 -1256 78 6 c192 16 758 47 966 53 l229 6 28 62 c100 212
67 580 -70 792 -125 194 -304 324 -491 359 -158 30 -356 8 -472 -52 -25 -13
-28 -12 -37 5 -10 17 -4 22 53 44 183 74 429 74 595 1 29 -13 55 -24 56 -24 1
0 -8 21 -21 48 -13 26 -24 52 -24 58 0 19 -101 116 -162 157 -106 70 -268 127
-365 127 -36 0 -43 3 -43 20 0 16 7 20 34 20 31 0 134 -19 194 -36 23 -7 24
-6 9 22 -20 38 -35 96 -45 173 -7 50 -6 64 5 68 20 8 21 5 34 -77 13 -84 40
-164 68 -197 10 -12 43 -36 72 -54 30 -17 82 -54 116 -81 l63 -50 -6 44 c-7
59 7 133 26 133 12 0 14 -14 12 -75 -4 -86 15 -176 55 -254 16 -31 65 -89 127
-151 193 -189 262 -318 301 -559 28 -171 13 -331 -41 -454 -13 -30 -23 -56
-22 -58 7 -6 308 -8 308 -1 0 4 -10 38 -22 75 -19 56 -23 89 -23 202 0 158 14
220 79 355 109 227 266 354 557 450 174 58 229 101 354 280 86 122 182 203
209 175 8 -9 5 -16 -14 -28 -55 -37 -116 -102 -182 -194 -79 -111 -155 -185
-227 -221 l-50 -25 147 -5 c155 -5 257 -28 257 -58 0 -17 -19 -16 -105 6 -101
26 -410 17 -500 -14 -168 -59 -326 -202 -414 -378 -14 -28 -37 -91 -51 -139
-43 -149 -30 -379 28 -467 l15 -24 429 -6 c235 -4 539 -10 676 -14 l247 -6 0
1236 0 1237 -1520 0 -1520 0 0 -1256z m996 648 c6 -4 14 -35 17 -69 7 -87 45
-152 150 -257 l89 -89 22 50 c15 32 46 70 87 106 35 31 73 70 83 86 20 29 46
31 46 3 0 -8 -35 -49 -77 -90 -132 -127 -138 -147 -67 -237 58 -75 109 -181
134 -280 11 -43 22 -80 24 -83 6 -6 75 104 117 188 71 141 86 262 49 381 -11
37 -16 67 -11 72 42 42 85 -183 59 -300 l-7 -32 63 35 c56 30 64 32 70 18 8
-20 10 -17 -34 -39 -68 -34 -116 -83 -155 -156 -21 -40 -63 -109 -93 -153 -41
-61 -58 -97 -68 -145 -16 -73 -16 -74 -37 -65 -13 5 -15 13 -9 33 4 14 7 67 7
116 0 72 -6 107 -29 178 -39 120 -93 197 -208 300 -178 161 -235 245 -245 367
-6 67 -1 79 23 62z m1351 -244 c-13 -151 -47 -201 -182 -267 -110 -54 -161
-99 -179 -161 -21 -72 -37 -90 -182 -216 -136 -118 -189 -181 -200 -240 -4
-23 -12 -34 -24 -34 -15 0 -16 6 -10 38 14 78 47 120 200 254 181 160 174 147
180 299 5 118 7 130 30 155 42 48 54 55 64 37 5 -10 0 -23 -17 -41 -34 -36
-49 -77 -41 -117 l6 -33 36 25 c21 14 69 41 107 60 39 20 82 44 98 55 43 31
68 91 74 180 5 70 8 78 26 78 19 0 20 -5 14 -72z"/>
<path d="M970 549 c-273 -13 -880 -48 -927 -55 l-43 -5 0 -245 0 -244 1520 0
1520 0 0 264 0 264 -212 6 c-762 24 -1531 30 -1858 15z"/>
</g>
</svg>
